<?xml version="1.0" encoding="utf-8"?>
<!-- Generator: Adobe Illustrator 23.1.1, SVG Export Plug-In . SVG Version: 6.00 Build 0)  -->
<svg version="1.1" id="Layer_1" xmlns="http://www.w3.org/2000/svg" xmlns:xlink="http://www.w3.org/1999/xlink" x="0px" y="0px"
	 viewBox="0 0 512 512" style="enable-background:new 0 0 512 512;" xml:space="preserve">
<style type="text/css">
	.st0{fill:#A3A3A3;}
</style>
<path class="st0" d="M288.6,85.5L227.5,167l46.4,61.9l-26.1,19.5c-27.5-36.7-73.3-97.7-73.3-97.7L76.8,281h358.4L288.6,85.5z"/>
<g>
	<path class="st0" d="M145.6,412.6h-4.5l-24.3-37.1v37.1h-4.5v-44.4h4.5l24.3,37.2v-37.2h4.5V412.6z"/>
	<path class="st0" d="M186.4,370.5c3.3,1.9,5.8,4.6,7.7,8.1c1.9,3.4,2.8,7.3,2.8,11.7s-0.9,8.3-2.8,11.7c-1.9,3.5-4.4,6.2-7.7,8.1
		s-7,2.9-11.1,2.9s-7.8-1-11.1-2.9s-5.8-4.6-7.7-8.1s-2.8-7.4-2.8-11.7s0.9-8.3,2.8-11.7c1.9-3.4,4.4-6.1,7.7-8.1
		c3.3-1.9,7-2.9,11.1-2.9S183.1,368.6,186.4,370.5z M166.6,374c-2.6,1.5-4.6,3.7-6.1,6.5s-2.2,6.1-2.2,9.8c0,3.7,0.7,7,2.2,9.8
		s3.5,5,6.1,6.5s5.5,2.3,8.7,2.3s6.1-0.8,8.7-2.3s4.6-3.7,6.1-6.5s2.2-6.1,2.2-9.8c0-3.7-0.7-7-2.2-9.8s-3.5-5-6.1-6.5
		s-5.5-2.3-8.7-2.3S169.2,372.5,166.6,374z"/>
	<path class="st0" d="M225.8,368.1v44.4h-4.5v-44.4H225.8z"/>
	<path class="st0" d="M278.4,369.1v43.5H274v-36.4l-15,36.4h-4l-15.1-36.3v36.3h-4.5v-43.5h5.2l16.4,38l16.3-38H278.4z"/>
	<path class="st0" d="M313.7,401.7h-20.2l-4,10.8h-4.7l16.4-43.4h5l16.4,43.4h-4.8L313.7,401.7z M312.4,398.2l-8.8-23.9l-8.9,23.9
		H312.4z"/>
	<path class="st0" d="M361.5,371.5c3.5,2.5,5.9,5.9,7.2,10.3H364c-1.1-3-3.1-5.4-5.8-7.2c-2.7-1.8-5.9-2.8-9.6-2.8
		c-3.2,0-6.1,0.8-8.7,2.3s-4.6,3.7-6.1,6.5s-2.2,6.1-2.2,9.8c0,3.8,0.7,7.1,2.2,10c1.5,2.8,3.5,5,6.2,6.5c2.6,1.5,5.6,2.3,9,2.3
		c3,0,5.7-0.7,8.2-2s4.5-3.2,6-5.8c1.5-2.5,2.4-5.5,2.7-8.9h-18.5v-3.3h22.3v3.9c-0.3,3.8-1.4,7.2-3.2,10.2c-1.8,3-4.3,5.4-7.4,7.2
		c-3.1,1.7-6.6,2.6-10.6,2.6c-4.2,0-7.9-1-11.2-2.9c-3.3-1.9-5.8-4.6-7.6-8c-1.8-3.4-2.7-7.3-2.7-11.7s0.9-8.3,2.7-11.7
		c1.8-3.4,4.3-6.1,7.6-8c3.3-1.9,7-2.9,11.2-2.9C353.7,367.8,358,369,361.5,371.5z"/>
	<path class="st0" d="M382.4,371.7v16.8h17.3v3.5h-17.3v16.9h19.2v3.7h-23.7v-44.4h23.7v3.6h-19.2V371.7z"/>
</g>
</svg>
