<svg height="512pt" viewBox="-11 0 511 512" width="512pt" xmlns="http://www.w3.org/2000/svg"><path d="m468.445312 120.761719c-11.027343-34.992188-26.058593-66.714844-44.75-94.589844-8.070312-12.054687-17.359374-26.171875-33.304687-26.171875h-291.550781c-6.652344 0-13.089844 2.371094-18.152344 6.535156-6.261719 5.011719-10.726562 13.027344-15.152344 19.640625-18.691406 27.871094-33.722656 59.597657-44.75 94.589844-13.460937 42.714844-20.285156 88.214844-20.285156 135.234375s6.824219 92.519531 20.285156 135.238281c11.085938 35.175781 26.21875 67.054688 45.046875 95.03125 3.292969 4.90625 6.722657 9.738281 10.289063 14.445313 5.351562 7.066406 13.84375 11.285156 22.71875 11.285156h291.550781c4.65625 0 9.199219-1.171875 13.242187-3.292969 14.03125-7.359375 27.414063-33.789062 34.429688-46.390625.121094-.21875.21875-.445312.316406-.667968 13.722656-24.855469 24.925782-52.269532 33.242188-81.28125.097656-.246094.203125-.484376.277344-.746094 2.761718-9.734375 5.203124-19.675782 7.257812-29.535156.035156-.171876.054688-.34375.078125-.515626 2.710937-12.996093 4.859375-26.222656 6.410156-39.609374.480469-4.179688-2.511719-7.957032-6.691406-8.441407-4.179687-.480469-7.953125 2.511719-8.4375 6.691407-1.277344 11.03125-2.972656 21.949218-5.066406 32.707031h-189.425781l.300781-4.574219c.378906-5.722656-1.652344-11.40625-5.570313-15.59375-3.921875-4.1875-9.457031-6.589844-15.195312-6.589844h-3.667969v-11.15625c10.125-2.710937 18.109375-10.699218 20.824219-20.820312h75.113281c4.203125 0 7.613281-3.410156 7.613281-7.617188 0-4.203125-3.410156-7.613281-7.613281-7.613281h-75.113281c-3.367188-12.554687-14.835938-21.824219-28.4375-21.824219-16.234375 0-29.441406 13.207032-29.441406 29.4375 0 13.601563 9.273437 25.074219 21.828124 28.4375v11.15625h-3.667968c-5.738282 0-11.273438 2.402344-15.195313 6.589844-3.917969 4.1875-5.949219 9.871094-5.574219 15.59375l.304688 4.574219h-188.855469c-5.234375-27.28125-7.945312-55.757813-7.945312-84.917969 0-29.445312 2.765625-58.195312 8.101562-85.722656h83.054688c4.207031 0 7.613281-3.410156 7.613281-7.613282 0-4.207031-3.40625-7.613281-7.613281-7.613281h-79.699219c1.078125-4.597656 2.242188-9.203125 3.484375-13.789062h427.890625c1.242188 4.585937 2.40625 9.191406 3.484375 13.789062h-320.171875c-4.203125 0-7.613281 3.40625-7.613281 7.613281 0 4.203126 3.410156 7.613282 7.613281 7.613282h323.523438c5.335937 27.527344 8.105468 56.277344 8.105468 85.722656 0 6.070312-.121094 12.210938-.359375 18.253906-.167969 4.199219 3.101563 7.742188 7.304688 7.90625 4.1875.160156 7.742187-3.105468 7.910156-7.304687.246094-6.242188.371094-12.585938.371094-18.855469 0-47.019531-6.824219-92.519531-20.285157-135.238281zm-238.378906 153.804687c0-7.835937 6.375-14.210937 14.210938-14.210937 7.835937 0 14.214844 6.375 14.214844 14.210937 0 7.835938-6.378907 14.214844-14.214844 14.214844-7.835938 0-14.210938-6.378906-14.210938-14.214844zm160.324219-259.339844c4.136719 0 8.089844 1.964844 10.578125 5.25.117188.15625.230469.3125.347656.46875 5.671875 7.523438 11.105469 15.488282 16.222656 23.800782h-345.847656c5.078125-8.246094 10.464844-16.148438 16.089844-23.613282 2.613281-3.476562 6.429688-5.90625 11.058594-5.90625zm-291.550781 481.546876c-4.132813 0-8.085938-1.964844-10.578125-5.25-6.015625-7.945313-11.769531-16.417969-17.1875-25.296876h347.058593c-5.296874 8.703126-11.011718 17.171876-17.164062 25.296876-2.488281 3.285156-6.441406 5.246093-10.578125 5.246093h-291.550781zm363.34375-140.628907c-1.078125 4.632813-2.230469 9.230469-3.460938 13.785157h-184.613281l.910156-13.785157zm-233.265625-24.988281c1.066406-1.140625 2.515625-1.769531 4.078125-1.769531h22.5625c1.5625 0 3.011718.628906 4.078125 1.769531 1.066406 1.140625 1.597656 2.625 1.496093 4.183594l-5.707031 86.429687h-22.292969l-5.707031-86.429687c-.105469-1.558594.425781-3.042969 1.492188-4.183594zm-40.933594 38.777344h-157.527344c-1.230469-4.574219-2.382812-9.179688-3.453125-13.789063h186.53125l4.558594 69c.4375 6.648438 6 11.855469 12.660156 11.855469h27.046875c6.660157 0 12.222657-5.207031 12.660157-11.855469l2.640624-39.984375h181.203126c-7.269532 23.328125-16.492188 45.460938-27.453126 65.835938h-364.59375c-11.101562-20.476563-20.332031-42.542969-27.558593-65.835938h153.285156c4.203125 0 7.613281-3.410156 7.613281-7.613281 0-4.207031-3.410156-7.613281-7.613281-7.613281zm-153.027344-243.902344c7.308594-23.382812 16.636719-45.527344 27.859375-66.054688h363.601563c11.21875 20.527344 20.546875 42.671876 27.859375 66.054688zm0 0"/><path d="m142.890625 29.988281c0 4.78125-3.875 8.65625-8.65625 8.65625s-8.65625-3.875-8.65625-8.65625 3.875-8.65625 8.65625-8.65625 8.65625 3.875 8.65625 8.65625zm0 0"/><path d="m253.273438 29.988281c0 4.78125-3.875 8.65625-8.65625 8.65625s-8.65625-3.875-8.65625-8.65625 3.875-8.65625 8.65625-8.65625 8.65625 3.875 8.65625 8.65625zm0 0"/><path d="m142.890625 481.5c0 4.78125-3.875 8.65625-8.65625 8.65625s-8.65625-3.875-8.65625-8.65625 3.875-8.65625 8.65625-8.65625 8.65625 3.875 8.65625 8.65625zm0 0"/><path d="m253.273438 481.5c0 4.78125-3.875 8.65625-8.65625 8.65625s-8.65625-3.875-8.65625-8.65625 3.875-8.65625 8.65625-8.65625 8.65625 3.875 8.65625 8.65625zm0 0"/><path d="m363.433594 29.988281c0 4.78125-3.875 8.65625-8.65625 8.65625s-8.65625-3.875-8.65625-8.65625 3.875-8.65625 8.65625-8.65625 8.65625 3.875 8.65625 8.65625zm0 0"/><path d="m363.433594 481.5c0 4.78125-3.875 8.65625-8.65625 8.65625s-8.65625-3.875-8.65625-8.65625 3.875-8.65625 8.65625-8.65625 8.65625 3.875 8.65625 8.65625zm0 0"/></svg>