<?xml version="1.0" encoding="utf-8"?>
<!-- Generator: Adobe Illustrator 23.1.1, SVG Export Plug-In . SVG Version: 6.00 Build 0)  -->
<svg version="1.1" id="Layer_3" xmlns="http://www.w3.org/2000/svg" xmlns:xlink="http://www.w3.org/1999/xlink" x="0px" y="0px"
	 viewBox="0 0 512 512" style="enable-background:new 0 0 512 512;" xml:space="preserve">
<style type="text/css">
	.st0{fill:#A3A3A3;}
</style>
<g>
	<path class="st0" d="M265.8,332.3c2.1,0.4,4.1-1,4.5-3l12.5-68c0.2-0.7,0.1-1.4-0.2-2.1l-8.7,8.3l-11.1,60.4
		C262.3,330,263.7,332,265.8,332.3z"/>
	<path class="st0" d="M241.2,253.7l-0.7,4c2.2-2.2,4.5-4.3,6.7-6.4c-0.5-0.3-1-0.6-1.5-0.6C243.6,250.2,241.6,251.6,241.2,253.7z"/>
	<path class="st0" d="M231.8,326.1c2.1,0.4,4.1-1,4.5-3l4.4-24l-9.4,9l-2.5,13.6C228.3,323.7,229.7,325.7,231.8,326.1L231.8,326.1z"
		/>
	<path class="st0" d="M207.2,247.5l-9.4,50.7c3.1-3,6.2-6,9.4-9l7.4-40.4c0.4-2.1-1-4.1-3.1-4.5
		C209.6,243.9,207.6,245.4,207.2,247.5z"/>
	<path class="st0" d="M209,173.6L209,173.6c0.9,0.2,1.9,0.2,3.2,0.1c1-0.1,2.1,0.2,2.9,1s1.3,1.7,1.3,2.8c0.2,5.4,4.1,10,9.4,11
		c0.4,0.1,0.7,0.1,1.1,0.1h0.4c1.6,0.1,3,1.1,3.4,2.6c1.4,4,4.7,6.9,8.8,7.6c3.3,0.6,6.6-0.2,9.2-2.3c0.9-0.7,2-1,3-0.8
		c1.1,0.2,2,0.9,2.6,1.8c1.8,3,4.5,4.9,7.8,5.4c-0.1,0,0.2,0,0.4,0c0.1,0,0.1,0,0.2,0c1.8,0.3,3,1.8,3.1,3.5
		c0.1,1.6,0.6,3.2,1.4,4.6c0.9,1.6,0.5,3.6-0.9,4.7c-2.1,1.8-3.4,4.1-3.8,6.6c-0.7,4.1,0.8,8.1,3.7,10.6c6-5.7,11.8-11.2,17.3-16.5
		c0.2-0.9,0.6-1.7,1.3-2.3c2.1-1.8,3.4-4.1,3.8-6.6c0.2-1.3,0.2-2.6,0-4.2c-0.3-1.9,0.9-3.8,2.7-4.4c3.4-1,6.3-3.4,7.6-6.6
		c0.4-1,1.2-1.8,2.2-2.2c1-0.4,2.1-0.3,3,0.2c1.1,0.6,2.1,0.9,3,1c0.8,0.2,1.6,0.2,2.4,0.2c4.2-3.9,7.9-7.5,11.2-10.6
		c0.4-5-2.6-9.8-7.4-11.6c-0.7-0.2-1.3-0.7-1.8-1.3c-1.4-1.9-3.4-3.4-5.8-4.1c-1.2-0.4-2.1-1.3-2.5-2.4c-2-5.8-8.2-9.2-14.4-7.2
		c-1.8,0.6-3.7-0.2-4.6-1.8c-2.6-4.9-8.5-7.3-13.9-5.4c-1.3,0.5-2.7,0.2-3.8-0.7c-3.8-3.2-8.7-3.6-12.9-1.4
		c-1.6,0.9-3.6,0.5-4.7-0.9c-1.8-2.1-4.1-3.4-6.6-3.8c-4.1-0.7-8.2,0.8-10.9,4c-1,1.2-2.6,1.7-4.2,1.2l-0.4-0.2
		c-4.2-1.4-9,0.2-11.9,3.7c-0.8,1-2,1.4-3.2,1.4c-5.8-0.4-11,3.7-12.1,9.4C198.6,166.4,202.8,172.4,209,173.6z"/>
	<path class="st0" d="M199.7,246c1.1-6.2,7.2-10.4,13.4-9.3s10.4,7.2,9.3,13.4l-5.5,30c4.7-4.5,9.4-9,14.2-13.5l2.6-14.4
		c1.1-6.2,7.2-10.4,13.4-9.3c2.2,0.4,4.2,1.4,5.8,2.9c2.6-2.5,5.3-5,7.8-7.5c-4.6-4.3-6.9-10.8-5.7-17.4c0.6-3.4,2.1-6.4,4.3-9
		c-0.2-0.7-0.5-1.4-0.6-2.2c-3.2-1-6.2-2.9-8.5-5.4c-3.7,1.8-7.9,2.5-12,1.8c-5.9-1.1-11-5-13.7-10.3h-0.1
		c-7.6-1.4-13.5-7.3-15.2-14.6c-1.8-0.2-3.6-0.6-5.3-1.3l-25,136.1c3.1-3,6.2-5.9,9.4-9L199.7,246z"/>
	<path class="st0" d="M221.8,317.1l-20.1,19.1l80.2,14.7l20.3-110.5l-14,13.4c1.8,2.5,2.6,5.7,2.1,8.9l-12.5,68
		c-1.1,6.2-7.2,10.4-13.4,9.3s-10.4-7.2-9.3-13.4l9.2-50L250.2,290l-6.3,34.4c-1.1,6.2-7.2,10.4-13.4,9.3
		c-6.2-1.1-10.4-7.2-9.3-13.4L221.8,317.1z"/>
	<path class="st0" d="M284.3,359.2l-89.5-16.5L181,355.9l100.5,18.5c4.2,0.8,8.2-2,9-6.2C291.2,363.9,288.5,359.9,284.3,359.2z"/>
	<path class="st0" d="M329.5,219.1l-4.2-0.7l-6.9,6.6l9.6,1.8c6.2,1.1,10.4,7.2,9.3,13.4l-11.8,64.2c-1.1,6.2-7.2,10.4-13.4,9.3
		l-15.1-2.8l-1.4,7.5l15.1,2.8c10.4,1.9,20.4-5,22.3-15.4l11.8-64.2C346.9,231.1,339.9,221.1,329.5,219.1z"/>
	<path class="st0" d="M375,152.9c-3-3.3-8.2-3.5-11.6-0.4L131,368.3c-3.3,3.1-3.5,8.2-0.4,11.6l0.5,0.5c3.1,3.3,8.2,3.5,11.6,0.4
		l232-216.3C377.9,161.4,378.1,156.2,375,152.9z"/>
</g>
</svg>
